<?xml version="1.0" encoding="utf-8"?>
<!-- Generator: Adobe Illustrator 28.0.0, SVG Export Plug-In . SVG Version: 6.00 Build 0)  -->
<svg version="1.1" id="Layer_1" xmlns="http://www.w3.org/2000/svg" xmlns:xlink="http://www.w3.org/1999/xlink" x="0px" y="0px"
	 viewBox="0 0 973.9 47" style="enable-background:new 0 0 973.9 47;" xml:space="preserve">
<style type="text/css">
	.st0{fill:#F9A664;}
</style>
<g>
	<g>
		<rect x="508.2" y="22.2" class="st0" width="395.6" height="2.6"/>
		<path class="st0" d="M493.6,23.4c0-3.7-2.9-6.8-6.5-6.8s-6.5,3-6.5,6.8s2.9,6.8,6.5,6.8S493.6,27.1,493.6,23.4z"/>
		<ellipse class="st0" cx="503.8" cy="23.4" rx="4.3" ry="4.5"/>
		<ellipse class="st0" cx="470.1" cy="23.4" rx="4.4" ry="4.5"/>
	</g>
	<rect x="70.5" y="22.5" class="st0" width="395.6" height="2.6"/>
	<g>
		<path class="st0" d="M64.8,21.1v5.8c0,1.5,1.2,2.7,2.7,2.7s2.7-1.3,2.7-2.8V21c0-1.5-1.2-2.7-2.7-2.7S64.8,19.5,64.8,21.1z"/>
		<path class="st0" d="M56,20.3v7.2c0,1.9,1.5,3.4,3.4,3.4s3.4-1.5,3.4-3.4v-7.2c0-1.9-1.5-3.4-3.4-3.4S56,18.5,56,20.3z"/>
		<path class="st0" d="M45.6,19.3v9.2c0,2.4,1.9,4.3,4.3,4.3s4.3-1.9,4.3-4.3v-9.2c0-2.4-1.9-4.3-4.3-4.3S45.6,17,45.6,19.3z"/>
		<path class="st0" d="M28.4,44.4c1.5-0.9,2-3.5,2.4-5c0.6-2,1.1-4.1,1.9-6.1c-0.1,0.2,0.5-1.3,0,0c1.8-5.1,6.6-8.4,12-8.2
			c-8.1-2.2-18.8,1.4-20.6,10.5c-0.4,2.1-0.3,4.3,0.5,6.3C25.2,43.1,26.7,45.4,28.4,44.4z"/>
		<path class="st0" d="M22.4,33.6c1-3.1,2.8-5.7,6-6.9c-4.6,0-10.8,0.6-13.4,5c-1.1,1.9-1.8,6.1,1,7C18.9,39.6,21.6,36.1,22.4,33.6
			C22.7,32.7,22.5,33.2,22.4,33.6z"/>
		<path class="st0" d="M34.5,18c-2.4-3.2-3-7.6-4.3-11.3c-0.4-1.3-1.3-3.9-3.2-3.3c-1.7,0.5-2.5,2.6-2.9,4.1
			c-0.9,3.8,0.3,8.1,3,10.9c4.4,4.7,11.4,6.1,17.6,4.5C40.7,23,37,21.2,34.5,18L34.5,18z"/>
		<path class="st0" d="M23.2,16.4c-1.2-2.4-1.5-4.9-3.9-6.5c-2.4-1.5-5-0.7-5.2,2.3c-0.2,2.5,1.2,4.9,3.1,6.3c0.1,0,0.2,0.1,0.2,0.1
			c3.3,2.1,7.1,2.6,11,2.6C26.1,20.2,24.4,18.6,23.2,16.4L23.2,16.4z"/>
		<path class="st0" d="M29.5,23.9C18,23.5,2.6,13.5,2.6,23.9S17.9,24.4,29.5,23.9z"/>
		<path class="st0" d="M909.2,26v-5.8c0-1.5-1.2-2.7-2.7-2.7s-2.7,1.2-2.7,2.7V26c0,1.5,1.2,2.7,2.7,2.7S909.2,27.5,909.2,26z"/>
		<path class="st0" d="M918,26.7v-7.2c0-1.9-1.5-3.4-3.4-3.4s-3.4,1.5-3.4,3.4v7.2c0,1.9,1.5,3.4,3.4,3.4S918,28.6,918,26.7z"/>
		<path class="st0" d="M928.4,27.7v-9.2c0-2.4-1.9-4.3-4.3-4.3s-4.3,1.9-4.3,4.3v9.2c0,2.4,1.9,4.3,4.3,4.3S928.4,30.1,928.4,27.7z"
			/>
		<path class="st0" d="M945.6,2.6c-1.5,0.9-2,3.5-2.4,5c-0.6,2-1.1,4.1-1.9,6.1c0.1-0.2-0.5,1.3,0,0c-1.8,5.1-6.6,8.4-12,8.2
			c8.1,2.2,18.8-1.4,20.6-10.5c0.4-2.1,0.3-4.3-0.5-6.3C948.8,3.9,947.2,1.7,945.6,2.6z"/>
		<path class="st0" d="M951.5,13.4c-1,3.1-2.8,5.7-6,6.9c4.6,0,10.8-0.6,13.3-5c1.1-1.9,1.8-6.1-1-7
			C954.9,7.4,952.2,10.9,951.5,13.4C951.3,14.3,951.4,13.8,951.5,13.4L951.5,13.4z"/>
		<path class="st0" d="M939.4,29.1c2.4,3.2,3,7.6,4.3,11.3c0.4,1.3,1.3,3.9,3.2,3.3c1.7-0.5,2.5-2.6,2.9-4.2c0.9-3.8-0.3-8.1-3-10.9
			c-4.4-4.7-11.4-6.1-17.6-4.5C933.2,24,937,25.8,939.4,29.1L939.4,29.1z"/>
		<path class="st0" d="M950.7,30.6c1.2,2.4,1.5,4.9,3.9,6.5c2.4,1.5,5,0.7,5.2-2.3c0.2-2.5-1.2-4.9-3.1-6.3c-0.1,0-0.2-0.1-0.2-0.1
			c-3.3-2.1-7.1-2.6-11-2.6C947.9,26.8,949.6,28.4,950.7,30.6L950.7,30.6z"/>
		<path class="st0" d="M944.4,23.1c11.5,0.4,26.9,10.4,26.9,0S956.1,22.6,944.4,23.1z"/>
	</g>
</g>
</svg>
