<?xml version="1.0" encoding="utf-8"?>
<!-- Generator: Adobe Illustrator 28.0.0, SVG Export Plug-In . SVG Version: 6.00 Build 0)  -->
<svg version="1.1" id="Layer_1" xmlns="http://www.w3.org/2000/svg" xmlns:xlink="http://www.w3.org/1999/xlink" x="0px" y="0px"
	 viewBox="0 0 1010 89.9" style="enable-background:new 0 0 1010 89.9;" xml:space="preserve">
<style type="text/css">
	.st0{fill:#F9A664;}
</style>
<g>
	<rect x="524" y="44.9" class="st0" width="395.6" height="2.6"/>
	<path class="st0" d="M509.4,46.1c0-3.7-2.9-6.8-6.5-6.8s-6.5,3-6.5,6.8s2.9,6.8,6.5,6.8S509.4,49.8,509.4,46.1z"/>
	<ellipse class="st0" cx="519.6" cy="46.1" rx="4.3" ry="4.5"/>
	<ellipse class="st0" cx="485.9" cy="46.1" rx="4.4" ry="4.5"/>
</g>
<rect x="86.3" y="45.2" class="st0" width="395.6" height="2.6"/>
<g>
	<path class="st0" d="M80.6,43.8v5.8c0,1.5,1.2,2.7,2.7,2.7S86,51,86,49.5v-5.8c0-1.5-1.2-2.7-2.7-2.7S80.6,42.2,80.6,43.8z"/>
	<path class="st0" d="M71.8,43v7.2c0,1.9,1.5,3.4,3.4,3.4s3.4-1.5,3.4-3.4V43c0-1.9-1.5-3.4-3.4-3.4S71.8,41.2,71.8,43z"/>
	<path class="st0" d="M61.4,42v9.2c0,2.4,1.9,4.3,4.3,4.3s4.3-1.9,4.3-4.3V42c0-2.4-1.9-4.3-4.3-4.3S61.4,39.7,61.4,42z"/>
	<path class="st0" d="M44.2,67.1c1.5-0.9,2-3.5,2.4-5c0.6-2,1.1-4.1,1.9-6.1c-0.1,0.2,0.5-1.3,0,0c1.8-5.1,6.6-8.4,12-8.2
		c-8.1-2.2-18.8,1.4-20.6,10.5c-0.4,2.1-0.3,4.3,0.5,6.3C41,65.8,42.5,68.1,44.2,67.1z"/>
	<path class="st0" d="M38.2,56.3c1-3.1,2.8-5.7,6-6.9c-4.6,0-10.8,0.6-13.4,5c-1.1,1.9-1.8,6.1,1,7c2.9,0.9,5.6-2.6,6.3-5
		C38.5,55.4,38.3,55.9,38.2,56.3z"/>
	<path class="st0" d="M50.3,40.7c-2.4-3.2-3-7.6-4.3-11.3c-0.4-1.3-1.3-3.9-3.2-3.3c-1.7,0.5-2.5,2.6-2.9,4.1
		c-0.9,3.8,0.3,8.1,3,10.9c4.4,4.7,11.4,6.1,17.6,4.5C56.5,45.7,52.8,43.9,50.3,40.7L50.3,40.7z"/>
	<path class="st0" d="M39,39.1c-1.2-2.4-1.5-4.9-3.9-6.5c-2.4-1.5-5-0.7-5.2,2.3c-0.2,2.5,1.2,4.9,3.1,6.3c0.1,0,0.2,0.1,0.2,0.1
		c3.3,2.1,7.1,2.6,11,2.6C41.9,42.9,40.2,41.3,39,39.1L39,39.1z"/>
	<path class="st0" d="M45.3,46.6c-11.5-0.4-26.9-10.4-26.9,0S33.7,47.1,45.3,46.6z"/>
	<path class="st0" d="M925,48.7v-5.8c0-1.5-1.2-2.7-2.7-2.7s-2.7,1.2-2.7,2.7v5.8c0,1.5,1.2,2.7,2.7,2.7S925,50.2,925,48.7z"/>
	<path class="st0" d="M933.8,49.4v-7.2c0-1.9-1.5-3.4-3.4-3.4s-3.4,1.5-3.4,3.4v7.2c0,1.9,1.5,3.4,3.4,3.4S933.8,51.3,933.8,49.4z"
		/>
	<path class="st0" d="M944.2,50.4v-9.2c0-2.4-1.9-4.3-4.3-4.3s-4.3,1.9-4.3,4.3v9.2c0,2.4,1.9,4.3,4.3,4.3S944.2,52.8,944.2,50.4z"
		/>
	<path class="st0" d="M961.4,25.3c-1.5,0.9-2,3.5-2.4,5c-0.6,2-1.1,4.1-1.9,6.1c0.1-0.2-0.5,1.3,0,0c-1.8,5.1-6.6,8.4-12,8.2
		c8.1,2.2,18.8-1.4,20.6-10.5c0.4-2.1,0.3-4.3-0.5-6.3C964.6,26.6,963,24.4,961.4,25.3z"/>
	<path class="st0" d="M967.3,36.1c-1,3.1-2.8,5.7-6,6.9c4.6,0,10.8-0.6,13.3-5c1.1-1.9,1.8-6.1-1-7c-2.9-0.9-5.6,2.6-6.3,5
		C967.1,37,967.2,36.5,967.3,36.1L967.3,36.1z"/>
	<path class="st0" d="M955.2,51.8c2.4,3.2,3,7.6,4.3,11.3c0.4,1.3,1.3,3.9,3.2,3.3c1.7-0.5,2.5-2.6,2.9-4.2c0.9-3.8-0.3-8.1-3-10.9
		c-4.4-4.7-11.4-6.1-17.6-4.5C949,46.7,952.8,48.5,955.2,51.8L955.2,51.8z"/>
	<path class="st0" d="M966.5,53.3c1.2,2.4,1.5,4.9,3.9,6.5c2.4,1.5,5,0.7,5.2-2.3c0.2-2.5-1.2-4.9-3.1-6.3c-0.1,0-0.2-0.1-0.2-0.1
		c-3.3-2.1-7.1-2.6-11-2.6C963.7,49.5,965.4,51.1,966.5,53.3L966.5,53.3z"/>
	<path class="st0" d="M960.2,45.8c11.5,0.4,26.9,10.4,26.9,0S971.9,45.3,960.2,45.8z"/>
</g>
</svg>
