<?xml version="1.0" encoding="utf-8"?>
<!-- Generator: Adobe Illustrator 28.0.0, SVG Export Plug-In . SVG Version: 6.00 Build 0)  -->
<svg version="1.1" id="Layer_1" xmlns="http://www.w3.org/2000/svg" xmlns:xlink="http://www.w3.org/1999/xlink" x="0px" y="0px"
	 viewBox="0 0 380.6 50" style="enable-background:new 0 0 380.6 50;" xml:space="preserve">
<style type="text/css">
	.st0{fill:#F9A664;}
</style>
<path class="st0" d="M200.9,24.1l-8.6-2.5l-1.9,2.3c-0.2-1.9-1.7-3.4-3.7-3.4s-3.5,1.5-3.7,3.4l-1.9-2.3l-8.6,2.5v-1.5L11.9,24.4
	l160.5,1.8v-1.7l8.6,2.5l1.9-2.3c0.2,1.9,1.7,3.4,3.7,3.4s3.5-1.5,3.7-3.4l1.9,2.3l8.6-2.5v1.7l169.8-1.8l-169.8-1.8L200.9,24.1
	L200.9,24.1z M186.7,26.7c-1.3,0-2.4-1.1-2.4-2.4s1.1-2.4,2.4-2.4s2.4,1.1,2.4,2.4S188,26.7,186.7,26.7z"/>
</svg>
